# xmcd
#
# Track frame offsets:
#	150
#	14014
#	30734
#	44382
#	57623
#	71130
#	83534
#	97139
#	111163
#	126288
#	138518
#
# Disc length: 2087 seconds
#
# Revision: 1
# Processed by: cddbd v1.5.2PL0 Copyright (c) Steve Scherf et al.
# Submitted via: audiograbber 1.82.01
#
DISCID=a208250b
DTITLE=Dr. Hook - Sometimes You Win
DYEAR=1979
DGENRE=Pop
TTITLE0=Better Love Next Time
TTITLE1=In Over My Head
TTITLE2=Sexy Eyes
TTITLE3=Oh! Jesse
TTITLE4=Years From Now On
TTITLE5=I Don't Feel Much Like Smilin'
TTITLE6=When You're In Love With A Beautiful Woman
TTITLE7=What Do You Want
TTITLE8=Love Monster
TTITLE9=Mountain Mary
TTITLE10=Help Me Mama
EXTD=
EXTT0=
EXTT1=
EXTT2=
EXTT3=
EXTT4=
EXTT5=
EXTT6=
EXTT7=
EXTT8=
EXTT9=
EXTT10=
PLAYORDER=
